<svg width="193" height="91" viewBox="0 0 193 91" fill="none" xmlns="http://www.w3.org/2000/svg">
<path d="M0.4375 0.428574H41.5804V7.28571H48.4375V62.1429H41.5804V69H0.4375V0.428574ZM27.8661 48.4286H34.7232V21H27.8661V14.1429H14.1518V55.2857H27.8661V48.4286ZM151.384 48.4286H144.527V41.5714H137.67V34.7143H130.812V0.428574H144.527V27.8571H151.384V34.7143H165.098V27.8571H171.955V0.428574H185.67V34.7143H178.812V41.5714H171.955V48.4286H165.098V69H151.384V48.4286Z" fill="white"/>
<path d="M55.3125 21H62.1696V14.1429H69.0268V7.28571H75.8839V0.428574H82.7411V7.28571H89.5982V14.1429H96.4554V21H103.312V69H89.5982V55.2857H69.0268V69H55.3125V21ZM69.0268 41.5714H89.5982V27.8571H82.7411V21H75.8839V27.8571H69.0268V41.5714ZM110.188 0.428574H123.902V69H110.188V0.428574Z" fill="url(#paint0_linear_452_7)"/>
<path d="M4.72956 88L7.01156 77.5H8.13156L10.4066 88H9.32156L8.87356 85.9H6.26256L5.81456 88H4.72956ZM6.45856 84.85H8.67756L7.48756 79.005H7.65556L6.45856 84.85ZM13.073 88H12.023V77.5H13.073V88ZM18.2928 90.52V80.405H19.3078V81.392L19.1398 81.161C19.3078 80.8717 19.5342 80.6453 19.8188 80.482C20.1082 80.314 20.4535 80.23 20.8548 80.23C21.2702 80.23 21.6435 80.3233 21.9748 80.51C22.3108 80.6967 22.5768 80.972 22.7728 81.336C22.9688 81.6953 23.0668 82.1363 23.0668 82.659V85.732C23.0668 86.2593 22.9688 86.705 22.7728 87.069C22.5768 87.433 22.3108 87.7083 21.9748 87.895C21.6435 88.077 21.2702 88.168 20.8548 88.168C20.4535 88.168 20.1082 88.0863 19.8188 87.923C19.5342 87.7597 19.3078 87.531 19.1398 87.237L19.3078 87.013V90.52H18.2928ZM20.6658 87.153C21.0998 87.153 21.4382 87.0223 21.6808 86.761C21.9282 86.4997 22.0518 86.1567 22.0518 85.732V82.659C22.0518 82.2343 21.9282 81.8937 21.6808 81.637C21.4382 81.3757 21.1022 81.245 20.6728 81.245C20.2388 81.245 19.9028 81.3757 19.6648 81.637C19.4268 81.8937 19.3078 82.2343 19.3078 82.659V85.739C19.3078 86.1637 19.4268 86.5067 19.6648 86.768C19.9028 87.0247 20.2365 87.153 20.6658 87.153ZM27.0393 88.168C26.5633 88.168 26.1457 88.0653 25.7863 87.86C25.427 87.6547 25.1447 87.3677 24.9393 86.999C24.734 86.6257 24.6313 86.1917 24.6313 85.697V82.694C24.6313 82.2087 24.734 81.7817 24.9393 81.413C25.1447 81.0397 25.427 80.7503 25.7863 80.545C26.1457 80.335 26.5633 80.23 27.0393 80.23C27.7533 80.23 28.3297 80.4563 28.7683 80.909C29.207 81.3617 29.4263 81.9567 29.4263 82.694V85.697C29.4263 86.4343 29.207 87.0317 28.7683 87.489C28.3297 87.9417 27.7533 88.168 27.0393 88.168ZM27.0393 87.153C27.464 87.153 27.7977 87.0223 28.0403 86.761C28.2877 86.4997 28.4113 86.1567 28.4113 85.732V82.659C28.4113 82.2343 28.2877 81.8937 28.0403 81.637C27.7977 81.3757 27.464 81.245 27.0393 81.245C26.6147 81.245 26.2763 81.3757 26.0243 81.637C25.7723 81.8937 25.6463 82.2343 25.6463 82.659V85.732C25.6463 86.1567 25.7723 86.4997 26.0243 86.761C26.2763 87.0223 26.6147 87.153 27.0393 87.153ZM31.7054 88L30.4944 80.405H31.5514L32.3984 86.887L32.2444 86.873L33.4904 80.405H34.4494L35.6954 86.873L35.5484 86.887L36.3814 80.405H37.4454L36.2344 88H35.0864L33.8824 82.148H34.0784L32.8604 88H31.7054ZM40.9163 88.168C40.4403 88.168 40.0226 88.0653 39.6633 87.86C39.3039 87.6547 39.0216 87.3677 38.8163 86.999C38.6109 86.6257 38.5083 86.1917 38.5083 85.697V82.694C38.5083 82.2087 38.6109 81.7817 38.8163 81.413C39.0216 81.0397 39.3039 80.7503 39.6633 80.545C40.0226 80.335 40.4403 80.23 40.9163 80.23C41.6303 80.23 42.2066 80.4563 42.6453 80.909C43.0839 81.3617 43.3033 81.9567 43.3033 82.694V84.353H39.3203V83.373H42.2883V82.659C42.2883 82.2343 42.1646 81.8937 41.9173 81.637C41.6746 81.3757 41.3409 81.245 40.9163 81.245C40.4916 81.245 40.1533 81.3757 39.9013 81.637C39.6493 81.8937 39.5233 82.2343 39.5233 82.659V85.732C39.5233 86.1567 39.6493 86.4997 39.9013 86.761C40.1533 87.0223 40.4916 87.153 40.9163 87.153C41.3409 87.153 41.6746 87.0223 41.9173 86.761C42.1646 86.4997 42.2883 86.1567 42.2883 85.732V85.557H43.3033V85.697C43.3033 86.4343 43.0839 87.0317 42.6453 87.489C42.2066 87.9417 41.6303 88.168 40.9163 88.168ZM45.0213 88V80.405H46.0363V81.497L45.8613 81.287C46.0387 80.9743 46.2743 80.734 46.5683 80.566C46.8623 80.398 47.203 80.314 47.5903 80.314H47.9193V81.329H47.3803C46.9743 81.329 46.6477 81.455 46.4003 81.707C46.1577 81.959 46.0363 82.2973 46.0363 82.722V88H45.0213ZM51.1565 88.168C50.6805 88.168 50.2628 88.0653 49.9035 87.86C49.5442 87.6547 49.2618 87.3677 49.0565 86.999C48.8512 86.6257 48.7485 86.1917 48.7485 85.697V82.694C48.7485 82.2087 48.8512 81.7817 49.0565 81.413C49.2618 81.0397 49.5442 80.7503 49.9035 80.545C50.2628 80.335 50.6805 80.23 51.1565 80.23C51.8705 80.23 52.4468 80.4563 52.8855 80.909C53.3242 81.3617 53.5435 81.9567 53.5435 82.694V84.353H49.5605V83.373H52.5285V82.659C52.5285 82.2343 52.4048 81.8937 52.1575 81.637C51.9148 81.3757 51.5812 81.245 51.1565 81.245C50.7318 81.245 50.3935 81.3757 50.1415 81.637C49.8895 81.8937 49.7635 82.2343 49.7635 82.659V85.732C49.7635 86.1567 49.8895 86.4997 50.1415 86.761C50.3935 87.0223 50.7318 87.153 51.1565 87.153C51.5812 87.153 51.9148 87.0223 52.1575 86.761C52.4048 86.4997 52.5285 86.1567 52.5285 85.732V85.557H53.5435V85.697C53.5435 86.4343 53.3242 87.0317 52.8855 87.489C52.4468 87.9417 51.8705 88.168 51.1565 88.168ZM57.2846 88.168C56.8692 88.168 56.4936 88.077 56.1576 87.895C55.8262 87.7083 55.5626 87.433 55.3666 87.069C55.1706 86.705 55.0726 86.2593 55.0726 85.732V82.659C55.0726 82.1363 55.1706 81.6953 55.3666 81.336C55.5626 80.972 55.8262 80.6967 56.1576 80.51C56.4936 80.3233 56.8692 80.23 57.2846 80.23C57.6859 80.23 58.0289 80.314 58.3136 80.482C58.6029 80.6453 58.8316 80.8717 58.9996 81.161L58.8316 81.392V77.5H59.8466V88H58.8316V87.013L58.9996 87.237C58.8316 87.531 58.6029 87.7597 58.3136 87.923C58.0289 88.0863 57.6859 88.168 57.2846 88.168ZM57.4736 87.153C57.9029 87.153 58.2366 87.0247 58.4746 86.768C58.7126 86.5067 58.8316 86.1637 58.8316 85.739V82.659C58.8316 82.2343 58.7102 81.8937 58.4676 81.637C58.2296 81.3757 57.8959 81.245 57.4666 81.245C57.0372 81.245 56.6989 81.3757 56.4516 81.637C56.2089 81.8937 56.0876 82.2343 56.0876 82.659V85.732C56.0876 86.1567 56.2089 86.4997 56.4516 86.761C56.6989 87.0223 57.0396 87.153 57.4736 87.153ZM65.0699 88V77.5H67.4499C68.2012 77.5 68.8032 77.738 69.2559 78.214C69.7086 78.6853 69.9349 79.3107 69.9349 80.09V85.41C69.9349 86.1847 69.7086 86.81 69.2559 87.286C68.8032 87.762 68.2012 88 67.4499 88H65.0699ZM66.1199 86.95H67.4499C67.8839 86.95 68.2316 86.81 68.4929 86.53C68.7542 86.2453 68.8849 85.872 68.8849 85.41V80.09C68.8849 79.628 68.7542 79.257 68.4929 78.977C68.2316 78.6923 67.8839 78.55 67.4499 78.55H66.1199V86.95ZM73.2429 88H72.1929V77.5H73.2429V88ZM77.2606 88V82.61L74.6986 77.5H75.7766L77.9746 81.938H77.5896L79.7806 77.5H80.8586L78.3106 82.61V88H77.2606ZM87.0893 88.168C86.6739 88.168 86.2983 88.077 85.9623 87.895C85.6309 87.7083 85.3673 87.433 85.1713 87.069C84.9753 86.705 84.8773 86.2593 84.8773 85.732V82.659C84.8773 82.1363 84.9753 81.6953 85.1713 81.336C85.3673 80.972 85.6309 80.6967 85.9623 80.51C86.2983 80.3233 86.6739 80.23 87.0893 80.23C87.4906 80.23 87.8336 80.314 88.1183 80.482C88.4076 80.6453 88.6363 80.8717 88.8043 81.161L88.6363 81.392V77.5H89.6513V88H88.6363V87.013L88.8043 87.237C88.6363 87.531 88.4076 87.7597 88.1183 87.923C87.8336 88.0863 87.4906 88.168 87.0893 88.168ZM87.2783 87.153C87.7076 87.153 88.0413 87.0247 88.2793 86.768C88.5173 86.5067 88.6363 86.1637 88.6363 85.739V82.659C88.6363 82.2343 88.5149 81.8937 88.2723 81.637C88.0343 81.3757 87.7006 81.245 87.2713 81.245C86.8419 81.245 86.5036 81.3757 86.2563 81.637C86.0136 81.8937 85.8923 82.2343 85.8923 82.659V85.732C85.8923 86.1567 86.0136 86.4997 86.2563 86.761C86.5036 87.0223 86.8443 87.153 87.2783 87.153ZM91.6424 88V80.405H92.6574V88H91.6424ZM91.6424 79.558V77.92H92.6574V79.558H91.6424ZM96.3863 88.168C95.6863 88.168 95.1449 87.9743 94.7623 87.587C94.3796 87.1997 94.1883 86.7097 94.1883 86.117C94.1883 85.7483 94.2559 85.4427 94.3913 85.2C94.5266 84.9527 94.6993 84.752 94.9093 84.598C95.1239 84.444 95.3503 84.3203 95.5883 84.227C95.8729 84.1103 96.1623 84.0193 96.4563 83.954C96.7549 83.884 97.0303 83.8117 97.2823 83.737C97.5343 83.6577 97.7373 83.5503 97.8913 83.415C98.0453 83.2797 98.1223 83.0883 98.1223 82.841V82.659C98.1223 82.2343 97.9939 81.8937 97.7373 81.637C97.4853 81.3757 97.1493 81.245 96.7293 81.245C96.3046 81.245 95.9686 81.3757 95.7213 81.637C95.4786 81.8937 95.3573 82.2343 95.3573 82.659V82.869H94.3423V82.694C94.3423 81.9567 94.5616 81.3617 95.0003 80.909C95.4389 80.4563 96.0153 80.23 96.7293 80.23C97.2006 80.23 97.6159 80.335 97.9753 80.545C98.3393 80.7503 98.6239 81.0373 98.8293 81.406C99.0346 81.7747 99.1373 82.204 99.1373 82.694V88H98.1223V86.95L98.2903 87.174C98.1129 87.4913 97.8633 87.7363 97.5413 87.909C97.2193 88.0817 96.8343 88.168 96.3863 88.168ZM96.5963 87.202C97.0723 87.202 97.4456 87.069 97.7163 86.803C97.9869 86.5323 98.1223 86.1473 98.1223 85.648V84.304C97.8376 84.4813 97.5203 84.6027 97.1703 84.668C96.8203 84.7287 96.4866 84.8127 96.1693 84.92C95.8893 85.0133 95.6583 85.1463 95.4763 85.319C95.2943 85.487 95.2033 85.7273 95.2033 86.04C95.2033 86.3807 95.3246 86.6607 95.5673 86.88C95.8099 87.0947 96.1529 87.202 96.5963 87.202ZM103.045 90.562C102.335 90.562 101.759 90.3333 101.316 89.876C100.877 89.4233 100.658 88.826 100.658 88.084V87.902H101.673V88.119C101.673 88.5437 101.794 88.8867 102.037 89.148C102.284 89.414 102.62 89.547 103.045 89.547C103.469 89.547 103.808 89.414 104.06 89.148C104.312 88.8867 104.438 88.5437 104.438 88.119V86.033L104.613 86.257C104.44 86.551 104.209 86.7797 103.92 86.943C103.635 87.1063 103.294 87.188 102.898 87.188C102.482 87.188 102.107 87.097 101.771 86.915C101.435 86.7283 101.169 86.453 100.973 86.089C100.777 85.725 100.679 85.2793 100.679 84.752V82.659C100.679 82.1363 100.777 81.6953 100.973 81.336C101.169 80.972 101.435 80.6967 101.771 80.51C102.107 80.3233 102.482 80.23 102.898 80.23C103.294 80.23 103.635 80.314 103.92 80.482C104.209 80.6453 104.44 80.8717 104.613 81.161L104.438 81.392V80.405H105.453V88.091C105.453 88.5857 105.35 89.0173 105.145 89.386C104.939 89.7593 104.657 90.0487 104.298 90.254C103.938 90.4593 103.521 90.562 103.045 90.562ZM103.08 86.173C103.509 86.173 103.843 86.0447 104.081 85.788C104.319 85.5267 104.438 85.1837 104.438 84.759V82.659C104.438 82.2343 104.319 81.8937 104.081 81.637C103.843 81.3757 103.509 81.245 103.08 81.245C102.646 81.245 102.305 81.3757 102.058 81.637C101.815 81.8937 101.694 82.2343 101.694 82.659V84.752C101.694 85.1767 101.815 85.5197 102.058 85.781C102.305 86.0423 102.646 86.173 103.08 86.173ZM107.447 88V80.405H108.462V81.42L108.287 81.217C108.464 80.8997 108.7 80.657 108.994 80.489C109.288 80.3163 109.631 80.23 110.023 80.23C110.658 80.23 111.169 80.4493 111.556 80.888C111.943 81.3267 112.137 81.917 112.137 82.659V88H111.122V82.659C111.122 82.2343 111.001 81.8937 110.758 81.637C110.52 81.3757 110.203 81.245 109.806 81.245C109.4 81.245 109.073 81.3757 108.826 81.637C108.583 81.8937 108.462 82.2343 108.462 82.659V88H107.447ZM116.221 88.168C115.745 88.168 115.327 88.0653 114.968 87.86C114.609 87.6547 114.326 87.3677 114.121 86.999C113.916 86.6257 113.813 86.1917 113.813 85.697V82.694C113.813 82.2087 113.916 81.7817 114.121 81.413C114.326 81.0397 114.609 80.7503 114.968 80.545C115.327 80.335 115.745 80.23 116.221 80.23C116.935 80.23 117.511 80.4563 117.95 80.909C118.389 81.3617 118.608 81.9567 118.608 82.694V85.697C118.608 86.4343 118.389 87.0317 117.95 87.489C117.511 87.9417 116.935 88.168 116.221 88.168ZM116.221 87.153C116.646 87.153 116.979 87.0223 117.222 86.761C117.469 86.4997 117.593 86.1567 117.593 85.732V82.659C117.593 82.2343 117.469 81.8937 117.222 81.637C116.979 81.3757 116.646 81.245 116.221 81.245C115.796 81.245 115.458 81.3757 115.206 81.637C114.954 81.8937 114.828 82.2343 114.828 82.659V85.732C114.828 86.1567 114.954 86.4997 115.206 86.761C115.458 87.0223 115.796 87.153 116.221 87.153ZM122.411 88.168C121.687 88.168 121.106 87.9603 120.668 87.545C120.234 87.125 120.017 86.572 120.017 85.886V85.641H121.032V85.928C121.032 86.2967 121.155 86.593 121.403 86.817C121.655 87.041 121.986 87.153 122.397 87.153C122.793 87.153 123.108 87.041 123.342 86.817C123.575 86.593 123.692 86.2687 123.692 85.844C123.692 85.5687 123.638 85.3587 123.531 85.214C123.428 85.0647 123.279 84.9527 123.083 84.878C122.887 84.8033 122.649 84.738 122.369 84.682C121.907 84.584 121.498 84.4767 121.144 84.36C120.789 84.2387 120.511 84.0473 120.311 83.786C120.115 83.5247 120.017 83.135 120.017 82.617C120.017 81.8423 120.229 81.252 120.654 80.846C121.083 80.4353 121.645 80.23 122.341 80.23C123.064 80.23 123.638 80.44 124.063 80.86C124.492 81.2753 124.707 81.8237 124.707 82.505V82.743H123.692V82.47C123.692 82.0967 123.57 81.8003 123.328 81.581C123.09 81.357 122.765 81.245 122.355 81.245C121.953 81.245 121.631 81.3593 121.389 81.588C121.151 81.812 121.032 82.1363 121.032 82.561C121.032 82.8363 121.083 83.0487 121.186 83.198C121.293 83.3427 121.447 83.45 121.648 83.52C121.848 83.59 122.089 83.6553 122.369 83.716C122.826 83.8093 123.23 83.9167 123.58 84.038C123.93 84.1593 124.205 84.353 124.406 84.619C124.606 84.885 124.707 85.2793 124.707 85.802C124.707 86.5627 124.497 87.1483 124.077 87.559C123.661 87.965 123.106 88.168 122.411 88.168ZM129.177 88.084C128.454 88.084 127.873 87.8553 127.434 87.398C127 86.936 126.783 86.3177 126.783 85.543V81.35H125.418V80.391H126.783V78.48H127.798V80.391H129.688V81.35H127.798V85.543C127.798 86.005 127.924 86.376 128.176 86.656C128.428 86.9313 128.762 87.069 129.177 87.069H129.688V88.084H129.177ZM130.976 88V80.405H131.991V88H130.976ZM130.976 79.558V77.92H131.991V79.558H130.976ZM136.168 88.168C135.692 88.168 135.275 88.0653 134.915 87.86C134.556 87.6547 134.274 87.3677 134.068 86.999C133.863 86.6257 133.76 86.1917 133.76 85.697V82.694C133.76 82.2087 133.863 81.7817 134.068 81.413C134.274 81.0397 134.556 80.7503 134.915 80.545C135.275 80.335 135.692 80.23 136.168 80.23C136.882 80.23 137.459 80.4563 137.897 80.909C138.336 81.3617 138.555 81.9567 138.555 82.694V82.834H137.54V82.659C137.54 82.2343 137.417 81.8937 137.169 81.637C136.927 81.3757 136.593 81.245 136.168 81.245C135.744 81.245 135.405 81.3757 135.153 81.637C134.901 81.8937 134.775 82.2343 134.775 82.659V85.732C134.775 86.1567 134.901 86.4997 135.153 86.761C135.405 87.0223 135.744 87.153 136.168 87.153C136.593 87.153 136.927 87.0223 137.169 86.761C137.417 86.4997 137.54 86.1567 137.54 85.732V85.557H138.555V85.697C138.555 86.4343 138.336 87.0317 137.897 87.489C137.459 87.9417 136.882 88.168 136.168 88.168ZM142.098 88.168C141.375 88.168 140.794 87.9603 140.355 87.545C139.921 87.125 139.704 86.572 139.704 85.886V85.641H140.719V85.928C140.719 86.2967 140.843 86.593 141.09 86.817C141.342 87.041 141.674 87.153 142.084 87.153C142.481 87.153 142.796 87.041 143.029 86.817C143.263 86.593 143.379 86.2687 143.379 85.844C143.379 85.5687 143.326 85.3587 143.218 85.214C143.116 85.0647 142.966 84.9527 142.77 84.878C142.574 84.8033 142.336 84.738 142.056 84.682C141.594 84.584 141.186 84.4767 140.831 84.36C140.477 84.2387 140.199 84.0473 139.998 83.786C139.802 83.5247 139.704 83.135 139.704 82.617C139.704 81.8423 139.917 81.252 140.341 80.846C140.771 80.4353 141.333 80.23 142.028 80.23C142.752 80.23 143.326 80.44 143.75 80.86C144.18 81.2753 144.394 81.8237 144.394 82.505V82.743H143.379V82.47C143.379 82.0967 143.258 81.8003 143.015 81.581C142.777 81.357 142.453 81.245 142.042 81.245C141.641 81.245 141.319 81.3593 141.076 81.588C140.838 81.812 140.719 82.1363 140.719 82.561C140.719 82.8363 140.771 83.0487 140.873 83.198C140.981 83.3427 141.135 83.45 141.335 83.52C141.536 83.59 141.776 83.6553 142.056 83.716C142.514 83.8093 142.917 83.9167 143.267 84.038C143.617 84.1593 143.893 84.353 144.093 84.619C144.294 84.885 144.394 85.2793 144.394 85.802C144.394 86.5627 144.184 87.1483 143.764 87.559C143.349 87.965 142.794 88.168 142.098 88.168ZM151.621 88.182C150.883 88.182 150.286 87.944 149.829 87.468C149.376 86.992 149.15 86.3667 149.15 85.592V84.556C149.15 84.0567 149.243 83.6203 149.43 83.247C149.621 82.869 149.882 82.5727 150.214 82.358L149.15 80.517V79.908C149.15 79.1333 149.376 78.508 149.829 78.032C150.286 77.556 150.888 77.318 151.635 77.318C152.386 77.318 152.988 77.556 153.441 78.032C153.893 78.5033 154.12 79.1287 154.12 79.908V80.258H153.07V79.908C153.07 79.446 152.939 79.075 152.678 78.795C152.416 78.5103 152.069 78.368 151.635 78.368C151.201 78.368 150.853 78.5103 150.592 78.795C150.33 79.075 150.2 79.446 150.2 79.908V80.517L153.126 85.473L153.735 82.323H154.596L153.798 86.635L154.505 87.839V88H153.525L153.231 87.503C153.039 87.7177 152.813 87.8833 152.552 88C152.29 88.1213 151.98 88.182 151.621 88.182ZM151.649 87.132C152.115 87.132 152.479 86.9687 152.741 86.642L150.76 83.303C150.386 83.5877 150.2 84.0053 150.2 84.556V85.592C150.2 86.054 150.33 86.4273 150.592 86.712C150.853 86.992 151.205 87.132 151.649 87.132ZM159.523 88V80.405H160.538V81.497L160.363 81.287C160.541 80.9743 160.776 80.734 161.07 80.566C161.364 80.398 161.705 80.314 162.092 80.314H162.421V81.329H161.882C161.476 81.329 161.15 81.455 160.902 81.707C160.66 81.959 160.538 82.2973 160.538 82.722V88H159.523ZM165.658 88.168C165.182 88.168 164.765 88.0653 164.405 87.86C164.046 87.6547 163.764 87.3677 163.558 86.999C163.353 86.6257 163.25 86.1917 163.25 85.697V82.694C163.25 82.2087 163.353 81.7817 163.558 81.413C163.764 81.0397 164.046 80.7503 164.405 80.545C164.765 80.335 165.182 80.23 165.658 80.23C166.372 80.23 166.949 80.4563 167.387 80.909C167.826 81.3617 168.045 81.9567 168.045 82.694V84.353H164.062V83.373H167.03V82.659C167.03 82.2343 166.907 81.8937 166.659 81.637C166.417 81.3757 166.083 81.245 165.658 81.245C165.234 81.245 164.895 81.3757 164.643 81.637C164.391 81.8937 164.265 82.2343 164.265 82.659V85.732C164.265 86.1567 164.391 86.4997 164.643 86.761C164.895 87.0223 165.234 87.153 165.658 87.153C166.083 87.153 166.417 87.0223 166.659 86.761C166.907 86.4997 167.03 86.1567 167.03 85.732V85.557H168.045V85.697C168.045 86.4343 167.826 87.0317 167.387 87.489C166.949 87.9417 166.372 88.168 165.658 88.168ZM169.764 90.52V80.405H170.779V81.392L170.611 81.161C170.779 80.8717 171.005 80.6453 171.29 80.482C171.579 80.314 171.924 80.23 172.326 80.23C172.741 80.23 173.114 80.3233 173.446 80.51C173.782 80.6967 174.048 80.972 174.244 81.336C174.44 81.6953 174.538 82.1363 174.538 82.659V85.732C174.538 86.2593 174.44 86.705 174.244 87.069C174.048 87.433 173.782 87.7083 173.446 87.895C173.114 88.077 172.741 88.168 172.326 88.168C171.924 88.168 171.579 88.0863 171.29 87.923C171.005 87.7597 170.779 87.531 170.611 87.237L170.779 87.013V90.52H169.764ZM172.137 87.153C172.571 87.153 172.909 87.0223 173.152 86.761C173.399 86.4997 173.523 86.1567 173.523 85.732V82.659C173.523 82.2343 173.399 81.8937 173.152 81.637C172.909 81.3757 172.573 81.245 172.144 81.245C171.71 81.245 171.374 81.3757 171.136 81.637C170.898 81.8937 170.779 82.2343 170.779 82.659V85.739C170.779 86.1637 170.898 86.5067 171.136 86.768C171.374 87.0247 171.707 87.153 172.137 87.153ZM178.062 88.168C177.362 88.168 176.821 87.9743 176.438 87.587C176.055 87.1997 175.864 86.7097 175.864 86.117C175.864 85.7483 175.932 85.4427 176.067 85.2C176.202 84.9527 176.375 84.752 176.585 84.598C176.8 84.444 177.026 84.3203 177.264 84.227C177.549 84.1103 177.838 84.0193 178.132 83.954C178.431 83.884 178.706 83.8117 178.958 83.737C179.21 83.6577 179.413 83.5503 179.567 83.415C179.721 83.2797 179.798 83.0883 179.798 82.841V82.659C179.798 82.2343 179.67 81.8937 179.413 81.637C179.161 81.3757 178.825 81.245 178.405 81.245C177.98 81.245 177.644 81.3757 177.397 81.637C177.154 81.8937 177.033 82.2343 177.033 82.659V82.869H176.018V82.694C176.018 81.9567 176.237 81.3617 176.676 80.909C177.115 80.4563 177.691 80.23 178.405 80.23C178.876 80.23 179.292 80.335 179.651 80.545C180.015 80.7503 180.3 81.0373 180.505 81.406C180.71 81.7747 180.813 82.204 180.813 82.694V88H179.798V86.95L179.966 87.174C179.789 87.4913 179.539 87.7363 179.217 87.909C178.895 88.0817 178.51 88.168 178.062 88.168ZM178.272 87.202C178.748 87.202 179.121 87.069 179.392 86.803C179.663 86.5323 179.798 86.1473 179.798 85.648V84.304C179.513 84.4813 179.196 84.6027 178.846 84.668C178.496 84.7287 178.162 84.8127 177.845 84.92C177.565 85.0133 177.334 85.1463 177.152 85.319C176.97 85.487 176.879 85.7273 176.879 86.04C176.879 86.3807 177 86.6607 177.243 86.88C177.486 87.0947 177.829 87.202 178.272 87.202ZM182.683 88V80.405H183.698V88H182.683ZM182.683 79.558V77.92H183.698V79.558H182.683ZM185.691 88V80.405H186.706V81.497L186.531 81.287C186.709 80.9743 186.944 80.734 187.238 80.566C187.532 80.398 187.873 80.314 188.26 80.314H188.589V81.329H188.05C187.644 81.329 187.318 81.455 187.07 81.707C186.828 81.959 186.706 82.2973 186.706 82.722V88H185.691Z" fill="url(#paint1_linear_452_7)"/>
<defs>
<linearGradient id="paint0_linear_452_7" x1="96.5" y1="0" x2="96.5" y2="69" gradientUnits="userSpaceOnUse">
<stop stop-color="#00FFBB"/>
<stop offset="1" stop-color="#7300FF"/>
</linearGradient>
<linearGradient id="paint1_linear_452_7" x1="96.5" y1="79.45" x2="96.5" y2="87.5" gradientUnits="userSpaceOnUse">
<stop stop-color="#00FFF7"/>
<stop offset="1" stop-color="#A047FF"/>
</linearGradient>
</defs>
</svg>
