<svg width="193" height="69" viewBox="0 0 193 69" fill="none" xmlns="http://www.w3.org/2000/svg">
<path d="M0.4375 0.428574H41.5804V7.28571H48.4375V62.1429H41.5804V69H0.4375V0.428574ZM27.8661 48.4286H34.7232V21H27.8661V14.1429H14.1518V55.2857H27.8661V48.4286ZM151.384 48.4286H144.527V41.5714H137.67V34.7143H130.812V0.428574H144.527V27.8571H151.384V34.7143H165.098V27.8571H171.955V0.428574H185.67V34.7143H178.812V41.5714H171.955V48.4286H165.098V69H151.384V48.4286Z" fill="white"/>
<path d="M55.3125 21H62.1696V14.1429H69.0268V7.28571H75.8839V0.428574H82.7411V7.28571H89.5982V14.1429H96.4554V21H103.312V69H89.5982V55.2857H69.0268V69H55.3125V21ZM69.0268 41.5714H89.5982V27.8571H82.7411V21H75.8839V27.8571H69.0268V41.5714ZM110.188 0.428574H123.902V69H110.188V0.428574Z" fill="url(#paint0_linear_453_2)"/>
<defs>
<linearGradient id="paint0_linear_453_2" x1="96.5" y1="0" x2="96.5" y2="69" gradientUnits="userSpaceOnUse">
<stop stop-color="#00FFBB"/>
<stop offset="1" stop-color="#7300FF"/>
</linearGradient>
</defs>
</svg>
